<svg xmlns="http://www.w3.org/2000/svg"
     viewBox="0 0 24 24">
      <g fill="none"
         stroke="currentColor"
         stroke-linecap="round"
         stroke-linejoin="round"
         stroke-width="1.5"
         color="currentColor">
            <path d="m10.463 13l-1.394 1.812a.33.33 0 0 0 .2.526l1.461.31a.33.33 0 0 1 .177.553L9.177 18M4 10h12" />
            <path
                  d="M4 21V9c0-2.828 0-4.243.879-5.121C5.757 3 7.172 3 10 3s4.243 0 5.121.879C16 4.757 16 6.172 16 9v12zm-2 0h16m-2-7h1.667c.31 0 .465 0 .592.034a1 1 0 0 1 .707.707c.034.127.034.282.034.592V16.5a1.5 1.5 0 0 0 3 0v-6.289c0-.601 0-.902-.086-1.185s-.252-.534-.586-1.034l-.773-1.16A1.87 1.87 0 0 0 19 6" />
      </g>
</svg>