<svg xmlns="http://www.w3.org/2000/svg"
     viewBox="0 0 14230 10905"
     fill="currentColor">
      <path
            d="M6530 10883c0-12 18-112 41-222 22-111 76-376 119-591 44-214 149-736 234-1159 86-424 156-771 156-773s612-3 1359-3c1286 0 1360-1 1365-17s186-906 437-2153c49-245 92-453 95-462 5-17-65-18-1348-20l-1353-3-3-26c-3-22 203-1076 467-2392l57-287-1325 2-1325 3-27 135c-34 163-388 1916-465 2294-29 149-54 271-54 273s-625 3-1390 3H2180v-36c0-32 76-421 410-2099 61-302 110-556 110-562 0-10-277-13-1350-13H0v-41c0-22 16-118 35-212 19-95 102-507 185-917S409 669 456 435C504 201 543 9 544 8s628-4 1394-5l1392-3v27c0 15-7 57-16 94-16 70-524 2581-524 2591 0 9 2650 2 2655-7 3-5 73-343 156-752 82-409 182-900 221-1093 39-192 94-465 122-605l51-255h38c20 1 647 2 1393 3l1357 2-6 43c-3 23-73 377-157 787-162 800-293 1444-341 1684-16 82-32 160-35 173l-6 23h2652l9-22c7-20 129-619 465-2286l81-402 1393-3 1392-2v23c0 22-44 244-394 1976-86 424-156 771-156 773s-613 4-1362 5l-1362 3-93 460c-51 253-133 660-182 905-50 245-126 625-171 845-44 220-83 408-86 418-5 16 64 17 1350 17h1356v32c0 26-194 1016-484 2468l-53 265-1366 3c-752 1-1367 3-1367 5 0 6-44 227-210 1047-100 492-216 1067-258 1278l-77 382H6530Z" />
</svg>